<mxfile host="65bd71144e" scale="1" border="20">
    <diagram id="PIv7IyTmh66AtnGEgyyZ" name="Страница 1">
        <mxGraphModel dx="1309" dy="776" grid="1" gridSize="10" guides="1" tooltips="1" connect="1" arrows="1" fold="1" page="1" pageScale="1" pageWidth="827" pageHeight="1169" background="#aa9292" math="0" shadow="1">
            <root>
                <mxCell id="0"/>
                <mxCell id="1" parent="0"/>
                <mxCell id="104" value="" style="shape=ext;double=1;rounded=1;whiteSpace=wrap;strokeColor=default;fillColor=none;fontFamily=Architects Daughter;fontSource=https%3A%2F%2Ffonts.googleapis.com%2Fcss%3Ffamily%3DArchitects%2BDaughter;fontColor=#000000;sketch=1;curveFitting=1;jiggle=2;fontStyle=1;fontSize=14;html=1;labelBackgroundColor=none;" parent="1" vertex="1">
                    <mxGeometry x="370" y="170" width="330" height="660" as="geometry"/>
                </mxCell>
                <mxCell id="99" value="" style="shape=ext;double=1;rounded=1;whiteSpace=wrap;strokeColor=default;fillColor=none;fontFamily=Architects Daughter;fontSource=https%3A%2F%2Ffonts.googleapis.com%2Fcss%3Ffamily%3DArchitects%2BDaughter;fontColor=#000000;sketch=1;curveFitting=1;jiggle=2;fontStyle=1;fontSize=14;html=1;labelBackgroundColor=none;" parent="1" vertex="1">
                    <mxGeometry x="40" y="190" width="300" height="520" as="geometry"/>
                </mxCell>
                <mxCell id="95" value="" style="edgeStyle=elbowEdgeStyle;elbow=horizontal;endArrow=classic;curved=0;rounded=1;endSize=8;startSize=8;exitX=1;exitY=0.5;exitDx=0;exitDy=0;entryX=1;entryY=0.5;entryDx=0;entryDy=0;fontFamily=Architects Daughter;fontSource=https%3A%2F%2Ffonts.googleapis.com%2Fcss%3Ffamily%3DArchitects%2BDaughter;fontColor=#000000;sketch=1;curveFitting=1;jiggle=2;fontStyle=1;fontSize=14;html=1;labelBackgroundColor=none;" parent="1" source="86" target="31" edge="1">
                    <mxGeometry width="50" height="50" relative="1" as="geometry">
                        <mxPoint x="620" y="862" as="sourcePoint"/>
                        <mxPoint x="670" y="812" as="targetPoint"/>
                        <Array as="points">
                            <mxPoint x="680" y="900"/>
                        </Array>
                    </mxGeometry>
                </mxCell>
                <mxCell id="100" value="" style="edgeStyle=elbowEdgeStyle;elbow=horizontal;endArrow=classic;curved=0;rounded=1;endSize=8;startSize=8;entryX=0;entryY=0.5;entryDx=0;entryDy=0;fontFamily=Architects Daughter;fontSource=https%3A%2F%2Ffonts.googleapis.com%2Fcss%3Ffamily%3DArchitects%2BDaughter;fontColor=#000000;sketch=1;curveFitting=1;jiggle=2;fontStyle=1;fontSize=14;html=1;labelBackgroundColor=none;" parent="1" source="78" target="64" edge="1">
                    <mxGeometry width="50" height="50" relative="1" as="geometry">
                        <mxPoint x="-170" y="892" as="sourcePoint"/>
                        <mxPoint x="-140" y="782" as="targetPoint"/>
                        <Array as="points">
                            <mxPoint x="20" y="750"/>
                        </Array>
                    </mxGeometry>
                </mxCell>
                <mxCell id="53" value="Roles(Enum)" style="shape=table;startSize=30;container=1;collapsible=0;childLayout=tableLayout;fixedRows=1;rowLines=0;fontStyle=1;strokeColor=default;fontFamily=Architects Daughter;fontSource=https%3A%2F%2Ffonts.googleapis.com%2Fcss%3Ffamily%3DArchitects%2BDaughter;fontColor=#000000;fillColor=#FFFFFF;rounded=1;sketch=1;curveFitting=1;jiggle=2;fontSize=14;html=1;labelBackgroundColor=none;" parent="1" vertex="1">
                    <mxGeometry x="91.29193548387099" y="250" width="203.22580645161293" height="90" as="geometry"/>
                </mxCell>
                <mxCell id="54" value="" style="shape=tableRow;horizontal=0;startSize=0;swimlaneHead=0;swimlaneBody=0;top=0;left=0;bottom=0;right=0;collapsible=0;dropTarget=0;fillColor=none;points=[[0,0.5],[1,0.5]];portConstraint=eastwest;strokeColor=default;fontFamily=Architects Daughter;fontSource=https%3A%2F%2Ffonts.googleapis.com%2Fcss%3Ffamily%3DArchitects%2BDaughter;fontColor=#000000;rounded=1;sketch=1;curveFitting=1;jiggle=2;fontStyle=1;fontSize=14;html=1;labelBackgroundColor=none;" parent="53" vertex="1">
                    <mxGeometry y="30" width="203.22580645161293" height="30" as="geometry"/>
                </mxCell>
                <mxCell id="55" value="1" style="shape=partialRectangle;whiteSpace=wrap;connectable=0;fillColor=none;top=0;left=0;bottom=0;right=0;overflow=hidden;pointerEvents=1;strokeColor=default;fontFamily=Architects Daughter;fontSource=https%3A%2F%2Ffonts.googleapis.com%2Fcss%3Ffamily%3DArchitects%2BDaughter;fontColor=#000000;rounded=1;sketch=1;curveFitting=1;jiggle=2;fontStyle=1;fontSize=14;html=1;labelBackgroundColor=none;" parent="54" vertex="1">
                    <mxGeometry width="45" height="30" as="geometry">
                        <mxRectangle width="45" height="30" as="alternateBounds"/>
                    </mxGeometry>
                </mxCell>
                <mxCell id="56" value="User" style="shape=partialRectangle;whiteSpace=wrap;connectable=0;fillColor=none;top=0;left=0;bottom=0;right=0;align=left;spacingLeft=6;overflow=hidden;strokeColor=default;fontFamily=Architects Daughter;fontSource=https%3A%2F%2Ffonts.googleapis.com%2Fcss%3Ffamily%3DArchitects%2BDaughter;fontColor=#000000;rounded=1;sketch=1;curveFitting=1;jiggle=2;fontStyle=1;fontSize=14;html=1;labelBackgroundColor=none;" parent="54" vertex="1">
                    <mxGeometry x="45" width="158" height="30" as="geometry">
                        <mxRectangle width="158" height="30" as="alternateBounds"/>
                    </mxGeometry>
                </mxCell>
                <mxCell id="57" value="" style="shape=tableRow;horizontal=0;startSize=0;swimlaneHead=0;swimlaneBody=0;top=0;left=0;bottom=0;right=0;collapsible=0;dropTarget=0;fillColor=none;points=[[0,0.5],[1,0.5]];portConstraint=eastwest;strokeColor=default;fontFamily=Architects Daughter;fontSource=https%3A%2F%2Ffonts.googleapis.com%2Fcss%3Ffamily%3DArchitects%2BDaughter;fontColor=#000000;rounded=1;sketch=1;curveFitting=1;jiggle=2;fontStyle=1;fontSize=14;html=1;labelBackgroundColor=none;" parent="53" vertex="1">
                    <mxGeometry y="60" width="203.22580645161293" height="30" as="geometry"/>
                </mxCell>
                <mxCell id="58" value="2" style="shape=partialRectangle;whiteSpace=wrap;connectable=0;fillColor=none;top=0;left=0;bottom=0;right=0;overflow=hidden;strokeColor=default;fontFamily=Architects Daughter;fontSource=https%3A%2F%2Ffonts.googleapis.com%2Fcss%3Ffamily%3DArchitects%2BDaughter;fontColor=#000000;rounded=1;sketch=1;curveFitting=1;jiggle=2;fontStyle=1;fontSize=14;html=1;labelBackgroundColor=none;" parent="57" vertex="1">
                    <mxGeometry width="45" height="30" as="geometry">
                        <mxRectangle width="45" height="30" as="alternateBounds"/>
                    </mxGeometry>
                </mxCell>
                <mxCell id="59" value="Admin" style="shape=partialRectangle;whiteSpace=wrap;connectable=0;fillColor=none;top=0;left=0;bottom=0;right=0;align=left;spacingLeft=6;overflow=hidden;strokeColor=default;fontFamily=Architects Daughter;fontSource=https%3A%2F%2Ffonts.googleapis.com%2Fcss%3Ffamily%3DArchitects%2BDaughter;fontColor=#000000;rounded=1;sketch=1;curveFitting=1;jiggle=2;fontStyle=1;fontSize=14;html=1;labelBackgroundColor=none;" parent="57" vertex="1">
                    <mxGeometry x="45" width="158" height="30" as="geometry">
                        <mxRectangle width="158" height="30" as="alternateBounds"/>
                    </mxGeometry>
                </mxCell>
                <mxCell id="63" value="Users" style="swimlane;fontStyle=1;childLayout=stackLayout;horizontal=1;startSize=30;horizontalStack=0;resizeParent=1;resizeParentMax=0;resizeLast=0;collapsible=1;marginBottom=0;whiteSpace=wrap;strokeColor=default;fontFamily=Architects Daughter;fontSource=https%3A%2F%2Ffonts.googleapis.com%2Fcss%3Ffamily%3DArchitects%2BDaughter;fontColor=#000000;fillColor=#FFFFFF;rounded=1;sketch=1;curveFitting=1;jiggle=2;fontSize=14;html=1;labelBackgroundColor=none;" parent="1" vertex="1">
                    <mxGeometry x="80.0016129032258" y="370" width="225.80645161290326" height="300" as="geometry"/>
                </mxCell>
                <mxCell id="64" value="Id_user int key" style="text;strokeColor=none;fillColor=none;align=left;verticalAlign=middle;spacingLeft=4;spacingRight=4;overflow=hidden;points=[[0,0.5],[1,0.5]];portConstraint=eastwest;rotatable=0;whiteSpace=wrap;fontFamily=Architects Daughter;fontSource=https%3A%2F%2Ffonts.googleapis.com%2Fcss%3Ffamily%3DArchitects%2BDaughter;fontColor=#000000;rounded=1;sketch=1;curveFitting=1;jiggle=2;fontStyle=1;fontSize=14;html=1;labelBackgroundColor=none;" parent="63" vertex="1">
                    <mxGeometry y="30" width="225.80645161290326" height="30" as="geometry"/>
                </mxCell>
                <mxCell id="65" value="FirstName string" style="text;strokeColor=none;fillColor=none;align=left;verticalAlign=middle;spacingLeft=4;spacingRight=4;overflow=hidden;points=[[0,0.5],[1,0.5]];portConstraint=eastwest;rotatable=0;whiteSpace=wrap;fontFamily=Architects Daughter;fontSource=https%3A%2F%2Ffonts.googleapis.com%2Fcss%3Ffamily%3DArchitects%2BDaughter;fontColor=#000000;rounded=1;sketch=1;curveFitting=1;jiggle=2;fontStyle=1;fontSize=14;html=1;labelBackgroundColor=none;" parent="63" vertex="1">
                    <mxGeometry y="60" width="225.80645161290326" height="30" as="geometry"/>
                </mxCell>
                <mxCell id="66" value="Second Name string" style="text;strokeColor=none;fillColor=none;align=left;verticalAlign=middle;spacingLeft=4;spacingRight=4;overflow=hidden;points=[[0,0.5],[1,0.5]];portConstraint=eastwest;rotatable=0;whiteSpace=wrap;fontFamily=Architects Daughter;fontSource=https%3A%2F%2Ffonts.googleapis.com%2Fcss%3Ffamily%3DArchitects%2BDaughter;fontColor=#000000;rounded=1;sketch=1;curveFitting=1;jiggle=2;fontStyle=1;fontSize=14;html=1;labelBackgroundColor=none;" parent="63" vertex="1">
                    <mxGeometry y="90" width="225.80645161290326" height="30" as="geometry"/>
                </mxCell>
                <mxCell id="67" value="Email string" style="text;strokeColor=none;fillColor=none;align=left;verticalAlign=middle;spacingLeft=4;spacingRight=4;overflow=hidden;points=[[0,0.5],[1,0.5]];portConstraint=eastwest;rotatable=0;whiteSpace=wrap;fontFamily=Architects Daughter;fontSource=https%3A%2F%2Ffonts.googleapis.com%2Fcss%3Ffamily%3DArchitects%2BDaughter;fontColor=#000000;rounded=1;sketch=1;curveFitting=1;jiggle=2;fontStyle=1;fontSize=14;html=1;labelBackgroundColor=none;" parent="63" vertex="1">
                    <mxGeometry y="120" width="225.80645161290326" height="30" as="geometry"/>
                </mxCell>
                <mxCell id="69" value="Phone_number&amp;nbsp; Long" style="text;strokeColor=none;fillColor=none;align=left;verticalAlign=middle;spacingLeft=4;spacingRight=4;overflow=hidden;points=[[0,0.5],[1,0.5]];portConstraint=eastwest;rotatable=0;whiteSpace=wrap;fontFamily=Architects Daughter;fontSource=https%3A%2F%2Ffonts.googleapis.com%2Fcss%3Ffamily%3DArchitects%2BDaughter;fontColor=#000000;rounded=1;sketch=1;curveFitting=1;jiggle=2;fontStyle=1;fontSize=14;html=1;labelBackgroundColor=none;" parent="63" vertex="1">
                    <mxGeometry y="150" width="225.80645161290326" height="30" as="geometry"/>
                </mxCell>
                <mxCell id="70" value="Role Roles(Enum) nol null" style="text;strokeColor=none;fillColor=none;align=left;verticalAlign=middle;spacingLeft=4;spacingRight=4;overflow=hidden;points=[[0,0.5],[1,0.5]];portConstraint=eastwest;rotatable=0;whiteSpace=wrap;fontFamily=Architects Daughter;fontSource=https%3A%2F%2Ffonts.googleapis.com%2Fcss%3Ffamily%3DArchitects%2BDaughter;fontColor=#000000;rounded=1;sketch=1;curveFitting=1;jiggle=2;fontStyle=1;fontSize=14;html=1;labelBackgroundColor=none;" parent="63" vertex="1">
                    <mxGeometry y="180" width="225.80645161290326" height="30" as="geometry"/>
                </mxCell>
                <mxCell id="71" value="locked boolean" style="text;strokeColor=none;fillColor=none;align=left;verticalAlign=middle;spacingLeft=4;spacingRight=4;overflow=hidden;points=[[0,0.5],[1,0.5]];portConstraint=eastwest;rotatable=0;whiteSpace=wrap;fontFamily=Architects Daughter;fontSource=https%3A%2F%2Ffonts.googleapis.com%2Fcss%3Ffamily%3DArchitects%2BDaughter;fontColor=#000000;rounded=1;sketch=1;curveFitting=1;jiggle=2;fontStyle=1;fontSize=14;html=1;labelBackgroundColor=none;" parent="63" vertex="1">
                    <mxGeometry y="210" width="225.80645161290326" height="30" as="geometry"/>
                </mxCell>
                <mxCell id="72" value="activated boolean" style="text;strokeColor=none;fillColor=none;align=left;verticalAlign=middle;spacingLeft=4;spacingRight=4;overflow=hidden;points=[[0,0.5],[1,0.5]];portConstraint=eastwest;rotatable=0;whiteSpace=wrap;fontFamily=Architects Daughter;fontSource=https%3A%2F%2Ffonts.googleapis.com%2Fcss%3Ffamily%3DArchitects%2BDaughter;fontColor=#000000;rounded=1;sketch=1;curveFitting=1;jiggle=2;fontStyle=1;fontSize=14;html=1;labelBackgroundColor=none;" parent="63" vertex="1">
                    <mxGeometry y="240" width="225.80645161290326" height="30" as="geometry"/>
                </mxCell>
                <mxCell id="73" value="profilePictureLink string nullable" style="text;strokeColor=none;fillColor=none;align=left;verticalAlign=middle;spacingLeft=4;spacingRight=4;overflow=hidden;points=[[0,0.5],[1,0.5]];portConstraint=eastwest;rotatable=0;whiteSpace=wrap;fontFamily=Architects Daughter;fontSource=https%3A%2F%2Ffonts.googleapis.com%2Fcss%3Ffamily%3DArchitects%2BDaughter;fontColor=#000000;rounded=1;sketch=1;curveFitting=1;jiggle=2;fontStyle=1;fontSize=14;html=1;labelBackgroundColor=none;" parent="63" vertex="1">
                    <mxGeometry y="270" width="225.80645161290326" height="30" as="geometry"/>
                </mxCell>
                <mxCell id="101" value="" style="edgeStyle=elbowEdgeStyle;elbow=horizontal;endArrow=classic;curved=0;rounded=1;endSize=8;startSize=8;exitX=1;exitY=0.5;exitDx=0;exitDy=0;entryX=1;entryY=0.25;entryDx=0;entryDy=0;fontFamily=Architects Daughter;fontSource=https%3A%2F%2Ffonts.googleapis.com%2Fcss%3Ffamily%3DArchitects%2BDaughter;fontColor=#000000;sketch=1;curveFitting=1;jiggle=2;fontStyle=1;fontSize=14;html=1;labelBackgroundColor=none;" parent="1" source="70" target="53" edge="1">
                    <mxGeometry width="50" height="50" relative="1" as="geometry">
                        <mxPoint x="819.3548387096776" y="680" as="sourcePoint"/>
                        <mxPoint x="875.8064516129034" y="630" as="targetPoint"/>
                        <Array as="points">
                            <mxPoint x="320" y="420"/>
                        </Array>
                    </mxGeometry>
                </mxCell>
                <mxCell id="102" value="" style="shape=ext;double=1;rounded=1;whiteSpace=wrap;strokeColor=default;fillColor=none;fontFamily=Architects Daughter;fontSource=https%3A%2F%2Ffonts.googleapis.com%2Fcss%3Ffamily%3DArchitects%2BDaughter;fontColor=#000000;sketch=1;curveFitting=1;jiggle=2;fontStyle=1;fontSize=14;html=1;labelBackgroundColor=none;" parent="1" vertex="1">
                    <mxGeometry x="120" y="870" width="540" height="240" as="geometry"/>
                </mxCell>
                <mxCell id="74" value="Orders" style="swimlane;fontStyle=1;childLayout=stackLayout;horizontal=1;startSize=30;horizontalStack=0;resizeParent=1;resizeParentMax=0;resizeLast=0;collapsible=1;marginBottom=0;whiteSpace=wrap;strokeColor=default;fontFamily=Architects Daughter;fontSource=https%3A%2F%2Ffonts.googleapis.com%2Fcss%3Ffamily%3DArchitects%2BDaughter;fontColor=#000000;fillColor=#FFFFFF;rounded=1;sketch=1;curveFitting=1;jiggle=2;fontSize=14;html=1;labelBackgroundColor=none;" parent="1" vertex="1">
                    <mxGeometry x="156" y="935" width="280" height="150" as="geometry"/>
                </mxCell>
                <mxCell id="75" value="Id_order int key" style="text;strokeColor=none;fillColor=none;align=left;verticalAlign=middle;spacingLeft=4;spacingRight=4;overflow=hidden;points=[[0,0.5],[1,0.5]];portConstraint=eastwest;rotatable=0;whiteSpace=wrap;fontFamily=Architects Daughter;fontSource=https%3A%2F%2Ffonts.googleapis.com%2Fcss%3Ffamily%3DArchitects%2BDaughter;fontColor=#000000;rounded=1;sketch=1;curveFitting=1;jiggle=2;fontStyle=1;fontSize=14;html=1;labelBackgroundColor=none;" parent="74" vertex="1">
                    <mxGeometry y="30" width="280" height="30" as="geometry"/>
                </mxCell>
                <mxCell id="76" value="card long (up to 16 numeric unsigned symbols)" style="text;strokeColor=none;fillColor=none;align=left;verticalAlign=middle;spacingLeft=4;spacingRight=4;overflow=hidden;points=[[0,0.5],[1,0.5]];portConstraint=eastwest;rotatable=0;whiteSpace=wrap;fontFamily=Architects Daughter;fontSource=https%3A%2F%2Ffonts.googleapis.com%2Fcss%3Ffamily%3DArchitects%2BDaughter;fontColor=#000000;rounded=1;sketch=1;curveFitting=1;jiggle=2;fontStyle=1;fontSize=14;html=1;labelBackgroundColor=none;" parent="74" vertex="1">
                    <mxGeometry y="60" width="280" height="30" as="geometry"/>
                </mxCell>
                <mxCell id="77" value="cvv short(3 numeric signs)" style="text;strokeColor=none;fillColor=none;align=left;verticalAlign=middle;spacingLeft=4;spacingRight=4;overflow=hidden;points=[[0,0.5],[1,0.5]];portConstraint=eastwest;rotatable=0;whiteSpace=wrap;fontFamily=Architects Daughter;fontSource=https%3A%2F%2Ffonts.googleapis.com%2Fcss%3Ffamily%3DArchitects%2BDaughter;fontColor=#000000;rounded=1;sketch=1;curveFitting=1;jiggle=2;fontStyle=1;fontSize=14;html=1;labelBackgroundColor=none;" parent="74" vertex="1">
                    <mxGeometry y="90" width="280" height="30" as="geometry"/>
                </mxCell>
                <mxCell id="78" value="Id_user int" style="text;strokeColor=none;fillColor=none;align=left;verticalAlign=middle;spacingLeft=4;spacingRight=4;overflow=hidden;points=[[0,0.5],[1,0.5]];portConstraint=eastwest;rotatable=0;whiteSpace=wrap;fontFamily=Architects Daughter;fontSource=https%3A%2F%2Ffonts.googleapis.com%2Fcss%3Ffamily%3DArchitects%2BDaughter;fontColor=#000000;rounded=1;sketch=1;curveFitting=1;jiggle=2;fontStyle=1;fontSize=14;html=1;labelBackgroundColor=none;" parent="74" vertex="1">
                    <mxGeometry y="120" width="280" height="30" as="geometry"/>
                </mxCell>
                <mxCell id="80" value="Taken" style="swimlane;fontStyle=1;childLayout=stackLayout;horizontal=1;startSize=30;horizontalStack=0;resizeParent=1;resizeParentMax=0;resizeLast=0;collapsible=1;marginBottom=0;whiteSpace=wrap;strokeColor=default;fontFamily=Architects Daughter;fontSource=https%3A%2F%2Ffonts.googleapis.com%2Fcss%3Ffamily%3DArchitects%2BDaughter;fontColor=#000000;fillColor=#FFFFFF;rounded=1;sketch=1;curveFitting=1;jiggle=2;fontSize=14;html=1;labelBackgroundColor=none;" parent="1" vertex="1">
                    <mxGeometry x="480" y="920" width="140" height="180" as="geometry"/>
                </mxCell>
                <mxCell id="81" value="Id_taken int" style="text;strokeColor=none;fillColor=none;align=left;verticalAlign=middle;spacingLeft=4;spacingRight=4;overflow=hidden;points=[[0,0.5],[1,0.5]];portConstraint=eastwest;rotatable=0;whiteSpace=wrap;fontFamily=Architects Daughter;fontSource=https%3A%2F%2Ffonts.googleapis.com%2Fcss%3Ffamily%3DArchitects%2BDaughter;fontColor=#000000;rounded=1;sketch=1;curveFitting=1;jiggle=2;fontStyle=1;fontSize=14;html=1;labelBackgroundColor=none;" parent="80" vertex="1">
                    <mxGeometry y="30" width="140" height="30" as="geometry"/>
                </mxCell>
                <mxCell id="82" value="time Date" style="text;strokeColor=none;fillColor=none;align=left;verticalAlign=middle;spacingLeft=4;spacingRight=4;overflow=hidden;points=[[0,0.5],[1,0.5]];portConstraint=eastwest;rotatable=0;whiteSpace=wrap;fontFamily=Architects Daughter;fontSource=https%3A%2F%2Ffonts.googleapis.com%2Fcss%3Ffamily%3DArchitects%2BDaughter;fontColor=#000000;rounded=1;sketch=1;curveFitting=1;jiggle=2;fontStyle=1;fontSize=14;html=1;labelBackgroundColor=none;" parent="80" vertex="1">
                    <mxGeometry y="60" width="140" height="30" as="geometry"/>
                </mxCell>
                <mxCell id="84" value="count int" style="text;strokeColor=none;fillColor=none;align=left;verticalAlign=middle;spacingLeft=4;spacingRight=4;overflow=hidden;points=[[0,0.5],[1,0.5]];portConstraint=eastwest;rotatable=0;whiteSpace=wrap;fontFamily=Architects Daughter;fontSource=https%3A%2F%2Ffonts.googleapis.com%2Fcss%3Ffamily%3DArchitects%2BDaughter;fontColor=#000000;rounded=1;sketch=1;curveFitting=1;jiggle=2;fontStyle=1;fontSize=14;html=1;labelBackgroundColor=none;" parent="80" vertex="1">
                    <mxGeometry y="90" width="140" height="30" as="geometry"/>
                </mxCell>
                <mxCell id="83" value="id_order int" style="text;strokeColor=none;fillColor=none;align=left;verticalAlign=middle;spacingLeft=4;spacingRight=4;overflow=hidden;points=[[0,0.5],[1,0.5]];portConstraint=eastwest;rotatable=0;whiteSpace=wrap;fontFamily=Architects Daughter;fontSource=https%3A%2F%2Ffonts.googleapis.com%2Fcss%3Ffamily%3DArchitects%2BDaughter;fontColor=#000000;rounded=1;sketch=1;curveFitting=1;jiggle=2;fontStyle=1;fontSize=14;html=1;labelBackgroundColor=none;" parent="80" vertex="1">
                    <mxGeometry y="120" width="140" height="30" as="geometry"/>
                </mxCell>
                <mxCell id="86" value="id_counter int" style="text;strokeColor=none;fillColor=none;align=left;verticalAlign=middle;spacingLeft=4;spacingRight=4;overflow=hidden;points=[[0,0.5],[1,0.5]];portConstraint=eastwest;rotatable=0;whiteSpace=wrap;fontFamily=Architects Daughter;fontSource=https%3A%2F%2Ffonts.googleapis.com%2Fcss%3Ffamily%3DArchitects%2BDaughter;fontColor=#000000;rounded=1;sketch=1;curveFitting=1;jiggle=2;fontStyle=1;fontSize=14;html=1;labelBackgroundColor=none;" parent="80" vertex="1">
                    <mxGeometry y="150" width="140" height="30" as="geometry"/>
                </mxCell>
                <mxCell id="90" value="" style="edgeStyle=elbowEdgeStyle;elbow=horizontal;endArrow=classic;curved=0;rounded=1;endSize=8;startSize=8;entryX=1;entryY=0.5;entryDx=0;entryDy=0;exitX=0;exitY=0.5;exitDx=0;exitDy=0;fontFamily=Architects Daughter;fontSource=https%3A%2F%2Ffonts.googleapis.com%2Fcss%3Ffamily%3DArchitects%2BDaughter;fontColor=#000000;sketch=1;curveFitting=1;jiggle=2;fontStyle=1;fontSize=14;html=1;labelBackgroundColor=none;" parent="1" source="83" target="75" edge="1">
                    <mxGeometry width="50" height="50" relative="1" as="geometry">
                        <mxPoint x="670" y="1570" as="sourcePoint"/>
                        <mxPoint x="890" y="1300" as="targetPoint"/>
                        <Array as="points"/>
                    </mxGeometry>
                </mxCell>
                <mxCell id="113" value="Order Infrastructure" style="text;strokeColor=none;fillColor=none;fontSize=24;fontStyle=1;verticalAlign=middle;align=center;fontFamily=Architects Daughter;fontSource=https%3A%2F%2Ffonts.googleapis.com%2Fcss%3Ffamily%3DArchitects%2BDaughter;fontColor=#000000;rounded=1;sketch=1;curveFitting=1;jiggle=2;html=1;labelBackgroundColor=#FFFFFF;" parent="1" vertex="1">
                    <mxGeometry x="210" y="880" width="350" height="40" as="geometry"/>
                </mxCell>
                <mxCell id="109" value="User Infrastructure" style="text;strokeColor=none;fillColor=none;fontSize=24;fontStyle=1;verticalAlign=middle;align=center;fontFamily=Architects Daughter;fontSource=https%3A%2F%2Ffonts.googleapis.com%2Fcss%3Ffamily%3DArchitects%2BDaughter;fontColor=#000000;rounded=1;sketch=1;curveFitting=1;jiggle=2;html=1;labelBackgroundColor=#FFFFFF;" parent="1" vertex="1">
                    <mxGeometry x="50" y="200" width="290" height="40" as="geometry"/>
                </mxCell>
                <mxCell id="135" value="DB Structure" style="text;strokeColor=none;fillColor=none;align=center;verticalAlign=middle;whiteSpace=wrap;rounded=1;hachureGap=4;fontFamily=Architects Daughter;fontSource=https%3A%2F%2Ffonts.googleapis.com%2Fcss%3Ffamily%3DArchitects%2BDaughter;fontSize=48;fontColor=#000000;sketch=1;curveFitting=1;jiggle=2;fontStyle=1;html=1;labelBackgroundColor=#FFFFFF;" parent="1" vertex="1">
                    <mxGeometry x="190" y="70" width="430" height="30" as="geometry"/>
                </mxCell>
                <mxCell id="111" value="Literature Infrastructure" style="text;strokeColor=none;fillColor=none;fontSize=24;fontStyle=1;verticalAlign=middle;align=center;fontFamily=Architects Daughter;fontSource=https%3A%2F%2Ffonts.googleapis.com%2Fcss%3Ffamily%3DArchitects%2BDaughter;fontColor=#000000;rounded=1;sketch=1;curveFitting=1;jiggle=2;html=1;labelBackgroundColor=#FFFFFF;" parent="1" vertex="1">
                    <mxGeometry x="387.88521739130437" y="189.9976923076923" width="289.1304347826087" height="49.23076923076922" as="geometry"/>
                </mxCell>
                <mxCell id="4" value="Literature_Types" style="swimlane;fontStyle=1;childLayout=stackLayout;horizontal=1;startSize=30;horizontalStack=0;resizeParent=1;resizeParentMax=0;resizeLast=0;collapsible=1;marginBottom=0;whiteSpace=wrap;strokeColor=default;fontFamily=Architects Daughter;fontSource=https%3A%2F%2Ffonts.googleapis.com%2Fcss%3Ffamily%3DArchitects%2BDaughter;fontColor=#000000;fillColor=#FFFFFF;rounded=1;sketch=1;curveFitting=1;jiggle=2;fontSize=14;html=1;labelBackgroundColor=none;" parent="1" vertex="1">
                    <mxGeometry x="457.19000000000005" y="239.99769230769226" width="150.53" height="103.84615384615384" as="geometry"/>
                </mxCell>
                <mxCell id="5" value="Id_type int key" style="text;strokeColor=none;fillColor=none;align=left;verticalAlign=middle;spacingLeft=4;spacingRight=4;overflow=hidden;points=[[0,0.5],[1,0.5]];portConstraint=eastwest;rotatable=0;whiteSpace=wrap;fontFamily=Architects Daughter;fontSource=https%3A%2F%2Ffonts.googleapis.com%2Fcss%3Ffamily%3DArchitects%2BDaughter;fontColor=#000000;rounded=1;sketch=1;curveFitting=1;jiggle=2;fontStyle=1;fontSize=14;html=1;labelBackgroundColor=none;" parent="4" vertex="1">
                    <mxGeometry y="30" width="150.53" height="36.92307692307692" as="geometry"/>
                </mxCell>
                <mxCell id="9" value="type_Name string&amp;nbsp;" style="text;strokeColor=none;fillColor=none;align=left;verticalAlign=middle;spacingLeft=4;spacingRight=4;overflow=hidden;points=[[0,0.5],[1,0.5]];portConstraint=eastwest;rotatable=0;whiteSpace=wrap;fontFamily=Architects Daughter;fontSource=https%3A%2F%2Ffonts.googleapis.com%2Fcss%3Ffamily%3DArchitects%2BDaughter;fontColor=#000000;rounded=1;sketch=1;curveFitting=1;jiggle=2;fontStyle=1;fontSize=14;html=1;labelBackgroundColor=none;" parent="4" vertex="1">
                    <mxGeometry y="66.92307692307692" width="150.53" height="36.92307692307692" as="geometry"/>
                </mxCell>
                <mxCell id="30" value="Present_Literature" style="swimlane;fontStyle=1;childLayout=stackLayout;horizontal=1;startSize=30;horizontalStack=0;resizeParent=1;resizeParentMax=0;resizeLast=0;collapsible=1;marginBottom=0;whiteSpace=wrap;strokeColor=default;fontFamily=Architects Daughter;fontSource=https%3A%2F%2Ffonts.googleapis.com%2Fcss%3Ffamily%3DArchitects%2BDaughter;fontColor=#000000;fillColor=#FFFFFF;rounded=1;sketch=1;curveFitting=1;jiggle=2;fontSize=14;html=1;labelBackgroundColor=none;" parent="1" vertex="1">
                    <mxGeometry x="439.9954716981132" y="680.0023076923076" width="164.9056603773585" height="140.76923076923077" as="geometry"/>
                </mxCell>
                <mxCell id="31" value="Id_counter int key" style="text;strokeColor=none;fillColor=none;align=left;verticalAlign=middle;spacingLeft=4;spacingRight=4;overflow=hidden;points=[[0,0.5],[1,0.5]];portConstraint=eastwest;rotatable=0;whiteSpace=wrap;fontFamily=Architects Daughter;fontSource=https%3A%2F%2Ffonts.googleapis.com%2Fcss%3Ffamily%3DArchitects%2BDaughter;fontColor=#000000;rounded=1;sketch=1;curveFitting=1;jiggle=2;fontStyle=1;fontSize=14;html=1;labelBackgroundColor=none;" parent="30" vertex="1">
                    <mxGeometry y="30" width="164.9056603773585" height="36.92307692307692" as="geometry"/>
                </mxCell>
                <mxCell id="32" value="Id_info int" style="text;strokeColor=none;fillColor=none;align=left;verticalAlign=middle;spacingLeft=4;spacingRight=4;overflow=hidden;points=[[0,0.5],[1,0.5]];portConstraint=eastwest;rotatable=0;whiteSpace=wrap;fontFamily=Architects Daughter;fontSource=https%3A%2F%2Ffonts.googleapis.com%2Fcss%3Ffamily%3DArchitects%2BDaughter;fontColor=#000000;rounded=1;sketch=1;curveFitting=1;jiggle=2;fontStyle=1;fontSize=14;html=1;labelBackgroundColor=none;" parent="30" vertex="1">
                    <mxGeometry y="66.92307692307692" width="164.9056603773585" height="36.92307692307692" as="geometry"/>
                </mxCell>
                <mxCell id="33" value="count int" style="text;strokeColor=none;fillColor=none;align=left;verticalAlign=middle;spacingLeft=4;spacingRight=4;overflow=hidden;points=[[0,0.5],[1,0.5]];portConstraint=eastwest;rotatable=0;whiteSpace=wrap;fontFamily=Architects Daughter;fontSource=https%3A%2F%2Ffonts.googleapis.com%2Fcss%3Ffamily%3DArchitects%2BDaughter;fontColor=#000000;rounded=1;sketch=1;curveFitting=1;jiggle=2;fontStyle=1;fontSize=14;html=1;labelBackgroundColor=none;" parent="30" vertex="1">
                    <mxGeometry y="103.84615384615384" width="164.9056603773585" height="36.92307692307692" as="geometry"/>
                </mxCell>
                <mxCell id="10" value="Literature_Info" style="swimlane;fontStyle=1;childLayout=stackLayout;horizontal=1;startSize=30;horizontalStack=0;resizeParent=1;resizeParentMax=0;resizeLast=0;collapsible=1;marginBottom=0;whiteSpace=wrap;strokeColor=default;fontFamily=Architects Daughter;fontSource=https%3A%2F%2Ffonts.googleapis.com%2Fcss%3Ffamily%3DArchitects%2BDaughter;fontColor=#000000;fillColor=#FFFFFF;rounded=1;sketch=1;curveFitting=1;jiggle=2;fontSize=14;html=1;labelBackgroundColor=none;" parent="1" vertex="1">
                    <mxGeometry x="450" y="350" width="164.91" height="325.3846153846153" as="geometry"/>
                </mxCell>
                <mxCell id="11" value="Id_info int key" style="text;strokeColor=none;fillColor=none;align=left;verticalAlign=middle;spacingLeft=4;spacingRight=4;overflow=hidden;points=[[0,0.5],[1,0.5]];portConstraint=eastwest;rotatable=0;whiteSpace=wrap;fontFamily=Architects Daughter;fontSource=https%3A%2F%2Ffonts.googleapis.com%2Fcss%3Ffamily%3DArchitects%2BDaughter;fontColor=#000000;rounded=1;sketch=1;curveFitting=1;jiggle=2;fontStyle=1;fontSize=14;html=1;labelBackgroundColor=none;" parent="10" vertex="1">
                    <mxGeometry y="30" width="164.91" height="36.92307692307692" as="geometry"/>
                </mxCell>
                <mxCell id="12" value="pages int" style="text;strokeColor=none;fillColor=none;align=left;verticalAlign=middle;spacingLeft=4;spacingRight=4;overflow=hidden;points=[[0,0.5],[1,0.5]];portConstraint=eastwest;rotatable=0;whiteSpace=wrap;fontFamily=Architects Daughter;fontSource=https%3A%2F%2Ffonts.googleapis.com%2Fcss%3Ffamily%3DArchitects%2BDaughter;fontColor=#000000;rounded=1;sketch=1;curveFitting=1;jiggle=2;fontStyle=1;fontSize=14;html=1;labelBackgroundColor=none;" parent="10" vertex="1">
                    <mxGeometry y="66.92307692307692" width="164.91" height="36.92307692307692" as="geometry"/>
                </mxCell>
                <mxCell id="13" value="words int nullable" style="text;strokeColor=none;fillColor=none;align=left;verticalAlign=middle;spacingLeft=4;spacingRight=4;overflow=hidden;points=[[0,0.5],[1,0.5]];portConstraint=eastwest;rotatable=0;whiteSpace=wrap;fontFamily=Architects Daughter;fontSource=https%3A%2F%2Ffonts.googleapis.com%2Fcss%3Ffamily%3DArchitects%2BDaughter;fontColor=#000000;rounded=1;sketch=1;curveFitting=1;jiggle=2;fontStyle=1;fontSize=14;html=1;labelBackgroundColor=none;" parent="10" vertex="1">
                    <mxGeometry y="103.84615384615384" width="164.91" height="36.92307692307692" as="geometry"/>
                </mxCell>
                <mxCell id="14" value="author string" style="text;strokeColor=none;fillColor=none;align=left;verticalAlign=middle;spacingLeft=4;spacingRight=4;overflow=hidden;points=[[0,0.5],[1,0.5]];portConstraint=eastwest;rotatable=0;whiteSpace=wrap;fontFamily=Architects Daughter;fontSource=https%3A%2F%2Ffonts.googleapis.com%2Fcss%3Ffamily%3DArchitects%2BDaughter;fontColor=#000000;rounded=1;sketch=1;curveFitting=1;jiggle=2;fontStyle=1;fontSize=14;html=1;labelBackgroundColor=none;" parent="10" vertex="1">
                    <mxGeometry y="140.76923076923077" width="164.91" height="36.92307692307692" as="geometry"/>
                </mxCell>
                <mxCell id="15" value="literature_name string&amp;nbsp;" style="text;strokeColor=none;fillColor=none;align=left;verticalAlign=middle;spacingLeft=4;spacingRight=4;overflow=hidden;points=[[0,0.5],[1,0.5]];portConstraint=eastwest;rotatable=0;whiteSpace=wrap;fontFamily=Architects Daughter;fontSource=https%3A%2F%2Ffonts.googleapis.com%2Fcss%3Ffamily%3DArchitects%2BDaughter;fontColor=#000000;rounded=1;sketch=1;curveFitting=1;jiggle=2;fontStyle=1;fontSize=14;html=1;labelBackgroundColor=none;" parent="10" vertex="1">
                    <mxGeometry y="177.69230769230768" width="164.91" height="36.92307692307692" as="geometry"/>
                </mxCell>
                <mxCell id="17" value="price int" style="text;strokeColor=none;fillColor=none;align=left;verticalAlign=middle;spacingLeft=4;spacingRight=4;overflow=hidden;points=[[0,0.5],[1,0.5]];portConstraint=eastwest;rotatable=0;whiteSpace=wrap;fontFamily=Architects Daughter;fontSource=https%3A%2F%2Ffonts.googleapis.com%2Fcss%3Ffamily%3DArchitects%2BDaughter;fontColor=#000000;rounded=1;sketch=1;curveFitting=1;jiggle=2;fontStyle=1;fontSize=14;html=1;labelBackgroundColor=none;" parent="10" vertex="1">
                    <mxGeometry y="214.61538461538458" width="164.91" height="36.92307692307692" as="geometry"/>
                </mxCell>
                <mxCell id="18" value="book_cover_link string nullable" style="text;strokeColor=none;fillColor=none;align=left;verticalAlign=middle;spacingLeft=4;spacingRight=4;overflow=hidden;points=[[0,0.5],[1,0.5]];portConstraint=eastwest;rotatable=0;whiteSpace=wrap;fontFamily=Architects Daughter;fontSource=https%3A%2F%2Ffonts.googleapis.com%2Fcss%3Ffamily%3DArchitects%2BDaughter;fontColor=#000000;rounded=1;sketch=1;curveFitting=1;jiggle=2;fontStyle=1;fontSize=14;html=1;labelBackgroundColor=none;" parent="10" vertex="1">
                    <mxGeometry y="251.5384615384615" width="164.91" height="36.92307692307692" as="geometry"/>
                </mxCell>
                <mxCell id="20" value="Id_type int not null" style="text;strokeColor=none;fillColor=none;align=left;verticalAlign=middle;spacingLeft=4;spacingRight=4;overflow=hidden;points=[[0,0.5],[1,0.5]];portConstraint=eastwest;rotatable=0;whiteSpace=wrap;fontFamily=Architects Daughter;fontSource=https%3A%2F%2Ffonts.googleapis.com%2Fcss%3Ffamily%3DArchitects%2BDaughter;fontColor=#000000;rounded=1;sketch=1;curveFitting=1;jiggle=2;fontStyle=1;fontSize=14;html=1;labelBackgroundColor=none;" parent="10" vertex="1">
                    <mxGeometry y="288.4615384615384" width="164.91" height="36.92307692307692" as="geometry"/>
                </mxCell>
                <mxCell id="97" value="" style="edgeStyle=elbowEdgeStyle;elbow=horizontal;endArrow=classic;curved=0;rounded=1;endSize=8;startSize=8;exitX=0;exitY=0.5;exitDx=0;exitDy=0;entryX=0;entryY=0.5;entryDx=0;entryDy=0;fontFamily=Architects Daughter;fontSource=https%3A%2F%2Ffonts.googleapis.com%2Fcss%3Ffamily%3DArchitects%2BDaughter;fontColor=#000000;sketch=1;curveFitting=1;jiggle=2;fontStyle=1;fontSize=14;html=1;labelBackgroundColor=none;" parent="1" source="32" target="11" edge="1">
                    <mxGeometry width="50" height="50" relative="1" as="geometry">
                        <mxPoint x="1603.735849056604" y="820" as="sourcePoint"/>
                        <mxPoint x="1647.132075471698" y="758.4615384615385" as="targetPoint"/>
                        <Array as="points">
                            <mxPoint x="400" y="560"/>
                        </Array>
                    </mxGeometry>
                </mxCell>
                <mxCell id="96" value="" style="edgeStyle=elbowEdgeStyle;elbow=horizontal;endArrow=classic;curved=0;rounded=1;endSize=8;startSize=8;exitX=1;exitY=0.5;exitDx=0;exitDy=0;entryX=1;entryY=0.5;entryDx=0;entryDy=0;fontFamily=Architects Daughter;fontSource=https%3A%2F%2Ffonts.googleapis.com%2Fcss%3Ffamily%3DArchitects%2BDaughter;fontColor=#000000;sketch=1;curveFitting=1;jiggle=2;fontStyle=1;fontSize=14;html=1;labelBackgroundColor=none;" parent="1" source="20" target="5" edge="1">
                    <mxGeometry width="50" height="50" relative="1" as="geometry">
                        <mxPoint x="1846.7547169811323" y="684.6153846153845" as="sourcePoint"/>
                        <mxPoint x="1872.7924528301887" y="364.61538461538464" as="targetPoint"/>
                        <Array as="points">
                            <mxPoint x="660" y="460"/>
                        </Array>
                    </mxGeometry>
                </mxCell>
            </root>
        </mxGraphModel>
    </diagram>
</mxfile>